<svg width="40" height="58" viewBox="0 0 40 58" fill="none" xmlns="http://www.w3.org/2000/svg">
<g clip-path="url(#clip0_1_15)">
<path fill-rule="evenodd" clip-rule="evenodd" d="M28.222 56.1923C25.7721 52.6655 24.3501 48.3881 23.9214 43.969C23.573 40.8175 23.6421 37.6022 23.9659 34.3891C24.6036 34.7275 25.308 34.9495 26.0037 35.0797C27.3669 35.3314 28.7177 35.2034 29.9819 34.9039C31.2473 34.5951 32.4143 34.0638 33.4525 33.3435C34.4796 32.6122 35.4177 31.7298 36.0266 30.4744C34.5803 30.3431 33.3676 30.4249 32.2065 30.5656C31.0494 30.7018 29.9778 30.9419 28.9379 31.1848C27.8991 31.4287 26.9025 31.7408 25.8842 32.0573C25.3309 32.2265 24.7793 32.404 24.1721 32.5946C24.2622 31.8985 24.3594 31.2024 24.4689 30.509C24.613 29.6315 24.7769 28.7568 24.9514 27.8827C25.6939 28.3733 26.5693 28.6739 27.4313 28.8349C28.7944 29.087 30.1447 28.9585 31.4089 28.659C32.6749 28.3503 33.8419 27.819 34.8795 27.0986C35.9066 26.3679 36.8447 25.485 37.4536 24.23C36.0073 24.0987 34.7952 24.1806 33.6335 24.3207C32.477 24.4575 31.4054 24.6976 30.3649 24.9405C29.3267 25.1839 28.3301 25.4959 27.3118 25.813C26.6536 26.013 26.0008 26.2267 25.2489 26.4586C25.5229 25.2042 25.8257 23.9537 26.1571 22.7081C27.1203 23.3685 28.2323 23.7597 29.3806 23.8998C30.7847 24.1048 32.241 23.9317 33.5784 23.4878C34.9217 23.0515 36.1443 22.3158 37.1146 21.3604C38.0673 20.4005 38.8478 19.234 39.0194 17.8127C37.5678 18.1604 36.4336 18.5187 35.324 18.8588L32.2106 19.8626L29.1329 20.8851C28.5959 21.0955 28.0367 21.2433 27.4447 21.4746C27.1028 21.6092 26.7509 21.7257 26.3831 21.8658C26.786 20.4032 27.2263 18.9478 27.6983 17.5C28.6188 18.3 29.8894 18.7088 31.1607 18.7637C32.6292 18.7972 34.0527 18.3923 35.2648 17.7621C36.4845 17.1275 37.4853 16.2468 38.2623 15.2237C39.0218 14.1924 39.6102 13.0282 39.6975 11.6332C38.2904 12.0249 37.1784 12.4892 36.1338 12.9672C35.0909 13.4348 34.1646 13.9507 33.2587 14.4084L30.5985 15.7858C29.8168 16.1484 28.9965 16.4891 27.9062 16.8764C28.3723 15.4798 28.8723 14.0913 29.3917 12.7084C29.9937 13.1655 30.7133 13.3534 31.4107 13.4133C32.2252 13.4694 33.0479 13.3331 33.7822 13.0205C34.5118 12.7024 35.1817 12.2513 35.6671 11.6436C36.1631 11.0502 36.505 10.3288 36.5449 9.46949C36.0577 9.48927 35.6952 9.59091 35.3169 9.65465C34.941 9.71728 34.6289 9.82882 34.3033 9.90354C33.685 10.0997 33.117 10.2711 32.5883 10.5123C32.0513 10.7403 31.5319 10.9898 30.9786 11.2991C30.5511 11.5392 30.1184 11.804 29.6078 12.1392C30.0065 11.0958 30.4229 10.0579 30.8556 9.02554C31.3996 9.15026 31.9857 9.08159 32.5045 8.94038C33.1978 8.74533 33.8197 8.39479 34.3402 7.96404C34.8748 7.53987 35.2918 7.01901 35.6308 6.46463C35.783 6.17673 35.9259 5.88443 36.0325 5.57729C36.1209 5.25752 36.2099 4.94434 36.2269 4.59765C35.882 4.7449 35.6091 4.92621 35.3351 5.10148C35.0593 5.274 34.8034 5.45147 34.5657 5.63883C34.0703 5.99212 33.6311 6.36793 33.1879 6.72121C32.7522 7.08384 32.3271 7.44042 31.8791 7.78932C31.6391 7.97557 31.4002 8.16348 31.1384 8.35084C31.2532 8.08216 32.4811 5.30752 32.9771 4.28392C32.4629 5.17346 31.9711 6.07453 31.4868 6.98C31.4371 6.57067 31.4201 6.19486 31.4013 5.82069C31.375 5.2751 31.3703 4.73995 31.3633 4.19327C31.3434 3.64823 31.3445 3.09055 31.2895 2.5087C31.2772 2.21805 31.245 1.9208 31.1952 1.61312C31.1484 1.30434 31.1086 0.993359 30.9926 0.654907C30.7303 0.900504 30.5441 1.17302 30.3508 1.44884C30.1805 1.73015 30.0464 2.02575 29.9222 2.32519C29.7132 2.93341 29.5826 3.5735 29.6072 4.22953C29.6183 4.88061 29.76 5.54817 30.0727 6.16024C30.3321 6.65528 30.7121 7.14538 31.2409 7.43328C31.0178 7.85525 29.6119 10.6716 29.1909 11.5639C29.1294 10.77 29.0591 10.1629 28.9625 9.58762C28.8606 8.99148 28.7312 8.45633 28.5743 7.92393C28.4332 7.38878 28.2083 6.86901 27.9723 6.29815C27.8253 6.01684 27.7164 5.72015 27.5267 5.40862C27.337 5.09544 27.1877 4.76962 26.8914 4.4059C26.2145 4.9861 25.8432 5.69432 25.6752 6.43166C25.4896 7.17065 25.5499 7.94261 25.7572 8.67171C25.9721 9.40136 26.3878 10.0805 26.9558 10.6315C27.5173 11.1574 28.2335 11.598 29.1393 11.6744C28.4794 13.0738 27.8476 14.4864 27.2433 15.91C26.9845 15.0951 26.8041 14.4649 26.6091 13.8556C26.386 13.076 26.1395 12.3667 25.8198 11.6425C25.4995 10.9189 25.1458 10.175 24.6522 9.41509C24.1586 8.64863 23.5818 7.87063 22.6818 7.00912C21.8872 7.97777 21.6044 9.01675 21.5101 10.042C21.4317 11.07 21.5991 12.0991 22.016 13.0732C22.4376 14.0419 23.0946 14.9693 24.0292 15.6677C24.8373 16.2528 25.8497 16.6737 26.9248 16.65C26.8955 16.7209 26.8633 16.7902 26.834 16.861C26.2777 18.2082 25.7525 19.5681 25.2553 20.9373C25.0668 20.6483 24.8829 20.3824 24.7336 20.0895C24.5878 19.8445 24.4432 19.6159 24.2974 19.4011C24.1726 19.1604 24.0456 18.9362 23.9132 18.7253C23.4255 17.8456 22.9354 17.0715 22.4816 16.2215C22.0114 15.3863 21.5271 14.5331 20.9591 13.6249C20.39 12.7106 19.7722 11.7672 18.8898 10.6859C18.0735 11.8386 17.8364 13.1166 17.8463 14.3682C17.8686 15.6254 18.2252 16.877 18.8599 18.022C19.4783 19.1714 20.4731 20.1835 21.6565 20.8845C21.9604 21.0543 22.2702 21.2098 22.5817 21.3499C22.9131 21.4691 23.2551 21.5631 23.5906 21.6461C23.7628 21.6812 23.9261 21.7241 24.0995 21.7483C24.2804 21.7598 24.4549 21.7768 24.637 21.7735C24.743 21.7752 24.8478 21.7713 24.9526 21.7702C24.4438 23.2119 23.9736 24.6679 23.5391 26.1355C22.9336 25.4086 22.3574 24.8251 21.8316 24.2196L19.7131 21.9763C19.0086 21.2543 18.2984 20.5252 17.512 19.7571C16.7156 18.9857 15.8853 18.1973 14.7751 17.2896C14.2387 18.5994 14.3312 19.9434 14.6814 21.1818C15.0368 22.4296 15.7377 23.5801 16.6652 24.5471C17.5892 25.5141 18.7486 26.3075 20.0632 26.747C21.0593 27.114 22.1472 27.2657 23.2428 27.1563C22.9629 28.1497 22.6976 29.1475 22.4552 30.1524C22.2918 30.8463 22.1414 31.5447 21.9967 32.2446C21.434 31.5804 20.8971 31.0315 20.4046 30.4639L18.2861 28.2217C17.5811 27.4986 16.8714 26.7695 16.085 26.0025C15.288 25.2306 14.4583 24.4421 13.3487 23.5345C12.8117 24.8443 12.9036 26.1882 13.2544 27.4267C13.6092 28.6739 14.3101 29.8255 15.2377 30.7919C16.1622 31.759 17.3211 32.5529 18.6356 32.9919C19.617 33.3534 20.6868 33.5078 21.7666 33.4073C21.1049 36.9253 20.7261 40.5158 20.8537 44.158C20.8719 45.3503 21.0089 46.5442 21.1354 47.7415L21.4369 49.5321C21.5306 50.1309 21.7116 50.7188 21.8474 51.3139C22.188 52.6178 22.6263 54.7358 23.1679 56C23.1942 56.0613 24.8789 56.1254 28.222 56.1923Z" fill="#C08D5D"/>
</g>
<g clip-path="url(#clip1_1_15)">
<path fill-rule="evenodd" clip-rule="evenodd" d="M23.7025 53.9626C23.4109 51.8768 22.4682 49.8182 21.0986 48.0077C20.138 46.7034 18.9967 45.5019 17.7593 44.3787C17.6342 44.7012 17.4433 44.9998 17.224 45.2608C16.793 45.7709 16.2349 46.1329 15.6504 46.4034C15.0622 46.6707 14.4342 46.8234 13.7897 46.8652C13.1455 46.8994 12.4828 46.8491 11.8159 46.5568C12.3203 46.0672 12.8098 45.7297 13.3 45.4301C13.7872 45.1302 14.2779 44.8957 14.7576 44.6719C15.2371 44.4489 15.7243 44.2645 16.2212 44.0753C16.4903 43.9714 16.7616 43.8712 17.0586 43.7591C16.7829 43.5218 16.5045 43.2867 16.2224 43.0563C15.8633 42.7665 15.4976 42.4838 15.1281 42.2044C15.016 42.6167 14.7873 42.9971 14.5154 43.3204C14.0846 43.8307 13.5266 44.1923 12.9421 44.4628C12.3536 44.7302 11.7257 44.883 11.0813 44.9246C10.4374 44.959 9.77452 44.9085 9.10776 44.6165C9.61214 44.1268 10.1014 43.7895 10.5917 43.4895C11.0789 43.19 11.5696 42.9555 12.0494 42.7315C12.5286 42.5084 13.0157 42.3241 13.5128 42.1351C13.8325 42.011 14.1548 41.8938 14.5211 41.7534C13.9819 41.3598 13.4331 40.9763 12.8751 40.6035C12.7379 41.1474 12.4508 41.6342 12.0628 42.0366C11.6 42.5414 10.9862 42.9183 10.3238 43.1561C9.66173 43.3986 8.94172 43.4906 8.24145 43.4223C7.54633 43.3469 6.84501 43.1407 6.28684 42.6524C6.95938 42.3434 7.51487 42.1348 8.05472 41.9267L9.58662 41.3619L11.1114 40.815C11.3886 40.7318 11.6524 40.618 11.9578 40.526C12.1345 40.4732 12.3087 40.4105 12.4971 40.352C11.8367 39.9183 11.1645 39.4988 10.4829 39.0918C10.4104 39.6758 10.069 40.2175 9.60472 40.6249C9.05796 41.0841 8.37629 41.3629 7.69687 41.4918C7.01303 41.6213 6.32709 41.5907 5.67685 41.4379C5.03043 41.2767 4.40291 41.0129 3.88594 40.509C4.5568 40.2302 5.14061 40.0687 5.70357 39.9328C6.26225 39.7936 6.79339 39.7081 7.29654 39.6067L8.78569 39.3217C9.20867 39.222 9.63873 39.1021 10.1876 38.9179C9.52603 38.5286 8.85439 38.1527 8.1773 37.7848C8.10696 38.1416 7.8985 38.4318 7.65411 38.6666C7.36385 38.9355 7.00379 39.1338 6.61618 39.2382C6.22844 39.339 5.8173 39.3712 5.42199 39.2877C5.02762 39.2129 4.64741 39.0425 4.33426 38.7279C4.52635 38.5873 4.69942 38.5158 4.86535 38.425C5.03 38.3345 5.18735 38.2821 5.33705 38.2115C5.64019 38.0981 5.9156 37.9906 6.20029 37.9216C6.48353 37.845 6.76752 37.782 7.08519 37.7314C7.33099 37.6927 7.58736 37.6618 7.89774 37.634C7.38427 37.3586 6.86603 37.0905 6.34346 36.8295C6.17988 37.0423 5.9332 37.1944 5.68697 37.2984C5.35572 37.435 4.99771 37.4908 4.6504 37.4853C4.30002 37.4865 3.96087 37.4152 3.6397 37.3075C3.48196 37.2443 3.32627 37.1766 3.17923 37.0923C3.03471 36.9976 2.89226 36.9055 2.76557 36.7789C2.94777 36.73 3.1144 36.716 3.27938 36.6993C3.44408 36.6811 3.60292 36.6708 3.75829 36.6697C4.06916 36.6535 4.36647 36.6628 4.65753 36.6624C4.94894 36.6678 5.23424 36.6742 5.52556 36.6707C5.68143 36.6685 5.83744 36.6673 6.00194 36.659C5.86512 36.5917 4.43598 35.91 3.89242 35.6716C4.39639 35.8535 4.89591 36.0466 5.39405 36.2437C5.27102 36.0729 5.14714 35.9248 5.0245 35.7769C4.84531 35.5614 4.6615 35.3565 4.47457 35.1465C4.29312 34.9332 4.09927 34.7216 3.91841 34.4836C3.82228 34.3693 3.73144 34.2465 3.64366 34.1144C3.55439 33.9828 3.46168 33.8524 3.38838 33.6885C3.5733 33.7021 3.73861 33.7491 3.90774 33.7953C4.07008 33.8504 4.22358 33.922 4.37463 33.9982C4.66505 34.1659 4.93668 34.3695 5.15485 34.6265C5.37641 34.8774 5.55405 35.1743 5.64743 35.5021C5.72048 35.7692 5.74596 36.071 5.64476 36.3412C5.87593 36.4339 7.38723 37.0773 7.85675 37.2886C7.60479 36.968 7.42095 36.7158 7.25819 36.4677C7.09018 36.2101 6.95379 35.9673 6.82882 35.7171C6.69688 35.4707 6.60212 35.2048 6.49386 34.916C6.45219 34.7643 6.3907 34.6184 6.3548 34.4423C6.31832 34.2655 6.2621 34.0962 6.24861 33.8679C6.7072 33.8827 7.09397 34.0391 7.41358 34.2684C7.74045 34.4929 7.98523 34.8048 8.15927 35.145C8.33061 35.4878 8.40805 35.8724 8.38321 36.2546C8.35205 36.6252 8.23258 37.0105 7.91465 37.3149C8.65088 37.6463 9.38101 37.9914 10.1045 38.3489C9.92031 37.9604 9.77032 37.666 9.63314 37.375C9.44758 37.0108 9.29532 36.6661 9.16574 36.2936C9.03657 35.9211 8.91305 35.5307 8.8372 35.0917C8.75908 34.6502 8.70856 34.1791 8.75198 33.5779C9.39004 33.7046 9.8579 34.0137 10.2493 34.3749C10.6357 34.7419 10.9289 35.1841 11.1082 35.6812C11.2838 36.1777 11.3557 36.73 11.2425 37.2797C11.1382 37.7478 10.8992 38.2156 10.4823 38.5335C10.518 38.5515 10.5542 38.5681 10.5899 38.5861C11.2687 38.9292 11.94 39.2866 12.6038 39.6561C12.5753 39.4888 12.553 39.3318 12.5082 39.1751C12.4787 39.0376 12.4544 38.9067 12.4353 38.7807C12.3993 38.6513 12.3698 38.5274 12.347 38.407C12.2274 37.9242 12.1453 37.4809 12.023 37.0198C11.9122 36.5593 11.8004 36.0876 11.7014 35.5696C11.6007 35.049 11.5084 34.5025 11.4689 33.8231C12.1791 34.0132 12.7124 34.427 13.1427 34.9059C13.5702 35.3907 13.8687 35.975 14.0245 36.6033C14.188 37.2283 14.1607 37.9156 13.9539 38.5419C13.8972 38.6989 13.8334 38.8521 13.7635 39.0001C13.6789 39.1462 13.5814 39.2859 13.4826 39.4194C13.4294 39.4851 13.3821 39.5511 13.3246 39.613C13.2598 39.6724 13.1993 39.7319 13.129 39.786C13.0892 39.8189 13.0481 39.8493 13.0078 39.8807C13.7013 40.2742 14.385 40.6848 15.0592 41.1107C15.0373 40.6503 15.054 40.2533 15.0439 39.8632L15.0715 38.3662C15.0889 37.8775 15.1061 37.3844 15.1387 36.8532C15.174 36.3178 15.2163 35.7656 15.3236 35.083C15.9818 35.418 16.4127 35.9571 16.7091 36.5344C17.0067 37.1169 17.1392 37.7674 17.1219 38.4171C17.1059 39.0657 16.9402 39.7198 16.5928 40.2866C16.3414 40.7289 15.9803 41.1173 15.5259 41.4088C15.9768 41.7014 16.4237 42.0002 16.8644 42.3085C17.1671 42.5227 17.4665 42.7425 17.7643 42.9647C17.7479 42.541 17.7617 42.1691 17.7521 41.8036L17.78 40.307C17.7973 39.8177 17.8143 39.3248 17.8473 38.794C17.8826 38.2583 17.9246 37.7062 18.0317 37.0238C18.6901 37.3586 19.1213 37.8975 19.4174 38.475C19.715 39.0571 19.8479 39.708 19.8304 40.3575C19.8142 41.0063 19.649 41.6604 19.3014 42.227C19.0536 42.6628 18.7004 43.0467 18.255 43.3368C19.7266 44.4732 21.1159 45.7232 22.3305 47.1469C22.7371 47.6057 23.0991 48.1013 23.4662 48.595L23.9725 49.3675C24.1446 49.6237 24.2797 49.9022 24.4344 50.1698C24.7571 50.7691 25.325 51.7076 25.5574 52.353C25.5687 52.3843 24.9504 52.9208 23.7025 53.9626Z" fill="#C08D5D"/>
</g>
<defs>
<clipPath id="clip0_1_15">
<rect width="26.9356" height="56.0423" fill="white" transform="translate(12.9686 0.654907)"/>
</clipPath>
<clipPath id="clip1_1_15">
<rect width="13.1127" height="28.8409" fill="white" transform="matrix(-0.781033 0.62449 0.673897 0.738826 10.2415 28.209)"/>
</clipPath>
</defs>
</svg>
